:SAMPLES-PER-SECOND 30
:FULLY-SPECIFIED
:DEGREES
328
root  8.589422421 38.60111086 4.54188895 -170.6729736 -60.13259888 166.1779785
lowerback  16.69449997 5.646500111 4.380109787
upperback  7.130020142 7.614880085 4.825880051
thorax  -1.769090056 3.530329943 1.280529976
lowerneck  5.565879822 7.417970181 5.366219997
upperneck  17.63050079 9.331439972 0.6808440089
head  4.650690079 4.726990223 -0.4452379942
lclavicle  0 -9.442270133e-015 7.951389973e-016
lhumerus  22.91239929 8.389670372 69.44300079
lradius  2.462660715e-031 -2.530641468e-031 134.2200012
lwrist  0 5.296687558e-031 45.54150009
lhand  -1.496451383e-031 -27.76390076 20.11240005
lfingers  90 7.125020027 -90
lthumb  89.89689403 5.08795885 91.16245106
rclavicle  0 -9.442270133e-015 7.951389973e-016
rhumerus  55.12670135 27.17289925 -71.93650055
rradius  -4.957032817e-032 3.496158219e-031 98.06990051
rwrist  0 7.062250077e-031 -78.39209747
rhand  -7.920061211e-032 -33.2840004 9.303460121
rfingers  -90 -7.125020027 -90
rthumb  -92.93752616 -24.25625642 -97.11982154
rfemur  -19.69350052 10.69159985 -9.80300045
rtibia  -0 0 55.5542984
rfoot  -4.510122126e-032 -11.85610008 4.646959782
rtoes  5.373923086 19.29304026 -105.8922705
lfemur  -25.06959915 -1.844699979 -6.972959995
ltibia  -0 0 60.6026001
lfoot  5.521940526e-032 -2.328049898 -1.465520024
ltoes  -4.250644065 -19.5611806 -102.515957
329
root  8.631333028 38.58333197 4.61151093 -170.0540161 -59.58499908 165.6970215
lowerback  16.8253994 5.703939915 3.87725997
upperback  7.325200081 7.591279984 4.825369835
thorax  -1.698379993 3.504990101 1.556040049
lowerneck  5.799739838 7.525269985 5.315979958
upperneck  18.54100037 9.423110008 0.622214973
head  4.899919987 4.755209923 -0.4444819987
lclavicle  0 -9.442270133e-015 7.951389973e-016
lhumerus  23.95630074 9.026470184 68.2385025
lradius  2.447111717e-031 -2.545680318e-031 133.8690033
lwrist  -7.062250077e-031 5.296687558e-031 45.05789948
lhand  -1.496451383e-031 -27.76390076 20.11240005
lfingers  90 7.125020027 -90
lthumb  89.89689403 5.08795885 91.16245106
rclavicle  0 -9.442270133e-015 7.951389973e-016
rhumerus  56.1495018 26.73360062 -71.64150238
rradius  -4.630430309e-032 3.500633541e-031 97.53500366
rwrist  3.531125038e-031 3.531125038e-031 -78.40769958
rhand  -7.920061211e-032 -33.2840004 9.303460121
rfingers  -90 -7.125020027 -90
rthumb  -92.93752616 -24.25625642 -97.11982154
rfemur  -20.80139923 10.63000011 -10.24559975
rtibia  -0 0 57
rfoot  -4.513795568e-032 -12.07619953 5.534369946
rtoes  5.373923086 19.29304026 -105.8922705
lfemur  -25.40649986 -2.195760012 -7.553209782
ltibia  -0 0 60.80149841
lfoot  4.419427855e-032 -2.864379883 -0.9788179994
ltoes  -4.250644065 -19.5611806 -102.515957
330
root  8.661400052 38.52800084 4.67346672 -169.4990234 -59.15750122 165.2470093
lowerback  16.84250069 5.805119991 3.326730013
upperback  7.498660088 7.618919849 4.911920071
thorax  -1.609850049 3.503700018 1.948539972
lowerneck  7.365210056 7.324319839 4.027919769
upperneck  16.52249908 9.09414959 1.729859948
head  4.308320045 4.545129776 0.01777870022
lclavicle  0 -9.442270133e-015 7.951389973e-016
lhumerus  24.66959953 9.377860069 67.34279633
lradius  2.433346914e-031 -2.558840916e-031 133.5599976
lwrist  0 5.296687558e-031 44.62979889
lhand  -1.496451383e-031 -27.76390076 20.11240005
lfingers  90 7.125020027 -90
lthumb  89.89689403 5.08795885 91.16245106
rclavicle  0 -9.442270133e-015 7.951389973e-016
rhumerus  56.82720184 26.2133007 -71.14710236
rradius  -4.379018407e-032 3.503867294e-031 97.123703
rwrist  3.531125038e-031 1.059337512e-030 -78.68810272
rhand  -7.920061211e-032 -33.2840004 9.303460121
rfingers  -90 -7.125020027 -90
rthumb  -92.93752616 -24.25625642 -97.11982154
rfemur  -21.75939941 10.40410042 -10.56400013
rtibia  -0 0 58.71530151
rfoot  -9.029473437e-032 -12.13189983 6.557670116
rtoes  5.373923086 19.29304026 -105.8922705
lfemur  -25.67410088 -2.481739998 -8.159059525
ltibia  -0 0 61.0379982
lfoot  4.974721752e-032 -3.461740017 -0.6763110161
ltoes  -4.250644065 -19.5611806 -102.515957
331
root  8.688711181 38.43822329 4.721444423 -169.2520142 -58.87250137 165.117981
lowerback  16.77179909 5.844950199 2.933109999
upperback  7.646969795 7.588870049 4.969610214
thorax  -1.475720048 3.477600098 2.243160009
lowerneck  8.123350143 7.270349979 3.295540094
upperneck  16.01029968 8.950940132 2.351510048
head  3.9005301 4.442269802 0.2899650037
lclavicle  0 -9.442270133e-015 7.951389973e-016
lhumerus  25.12470055 9.754910469 66.47840118
lradius  2.419870908e-031 -2.571588775e-031 133.2590027
lwrist  0 7.062250077e-031 44.33169937
lhand  -1.496451383e-031 -27.76390076 20.11240005
lfingers  90 7.125020027 -90
lthumb  89.89689403 5.08795885 91.16245106
rclavicle  0 -9.442270133e-015 7.951389973e-016
rhumerus  57.20949936 25.65130043 -70.79620361
rradius  -4.230802311e-032 3.505687829e-031 96.88140106
rwrist  3.531125038e-031 3.531125038e-031 -79.10079956
rhand  -7.920061211e-032 -33.2840004 9.303460121
rfingers  -90 -7.125020027 -90
rthumb  -92.93752616 -24.25625642 -97.11982154
rfemur  -22.57169914 10.16870022 -10.54459953
rtibia  -0 0 60.62739944
rfoot  -0 -11.96179962 7.37154007
rtoes  5.373923086 19.29304026 -105.8922705
lfemur  -25.89189911 -2.810379982 -8.55163002
ltibia  -0 0 61.27190018
lfoot  4.977358226e-032 -3.931600094 -0.4932410121
ltoes  -4.250644065 -19.5611806 -102.515957
